<svg xmlns="http://www.w3.org/2000/svg" viewBox="0 0 640 300" role="img" aria-labelledby="title desc">
  <title id="title">Parallel RC circuit</title><desc id="desc">An AC voltage source connected to a resistor and capacitor in parallel.</desc>
  <rect width="640" height="300" fill="#ffffff"/>
  <g fill="none" stroke="#111111" stroke-width="4" stroke-linecap="round" stroke-linejoin="round">
    <path d="M100 60v57M100 183v57M100 60H540M100 240H540M315 60v50M470 60v77M470 163v77"/><circle cx="100" cy="150" r="33"/><path d="M77 150c9-17 16-17 24 0s15 17 24 0"/>
    <path d="M315 110l-13 8 26 16-26 16 26 16-26 16 13 8v50M448 137h44M448 163h44"/>
    <path d="M260 82v62" stroke="#2f7d32"/><path d="m250 133 10 15 10-15" stroke="#2f7d32"/><path d="M415 82v62" stroke="#2f7d32"/><path d="m405 133 10 15 10-15" stroke="#2f7d32"/>
  </g>
  <g fill="#111111" font-family="Arial, sans-serif" font-size="22">
    <text x="345" y="158" font-style="italic">R</text><text x="505" y="158" font-style="italic">C</text><text x="28" y="158" font-style="italic">V<tspan baseline-shift="sub" font-size="15">s</tspan></text><text x="226" y="111" fill="#2f7d32" font-style="italic">I<tspan baseline-shift="sub" font-size="15">R</tspan></text><text x="381" y="111" fill="#2f7d32" font-style="italic">I<tspan baseline-shift="sub" font-size="15">C</tspan></text>
  </g>
  <g fill="#111111"><circle cx="315" cy="60" r="6"/><circle cx="315" cy="240" r="6"/><circle cx="470" cy="60" r="6"/><circle cx="470" cy="240" r="6"/></g>
</svg>
